<svg height="18" viewBox="0 0 117 18" width="117" xmlns="http://www.w3.org/2000/svg" xmlns:xlink="http://www.w3.org/1999/xlink"><mask id="a" fill="#fff"><path d="m.00007508 18.0202259h9.02888405v-17.93586872h-9.02888405z" fill="#fff" fill-rule="evenodd"/></mask><mask id="b" fill="#fff"><path d="m0 18.3356925h116.323937v-17.9601585h-116.323937z" fill="#fff" fill-rule="evenodd"/></mask><g fill="#020303" fill-rule="evenodd" transform="translate(0 -.332031)"><path d="m.00007508 4.25716575c0-1.46414335.3863086-2.525835 1.15892579-3.18432409.77261718-.65886451 1.99686628-.98848448 3.6727473-.98848448.84582435 0 1.62670081.15467361 2.34262937.4636454.65060524.27668555 1.11425064.72005819 1.39093619 1.33011793.27631013.61005973.41484062 1.53359631.41484062 2.76948347l-.02440239 1.1469123h-3.36752973v-.97609557c0-.60142504-.07020379-1.00049796-.20986054-1.19571708-.13965675-.19521911-.42347531-.29282867-.85070484-.29282867-.41183724 0-.7114235.11375268-.90063587.34163345s-.28381856.60217588-.28381856 1.12250991v8.44322668c0 1.0579374.39456786 1.5861553 1.18407901 1.5861553.41071099 0 .69828376-.1584278.86309374-.4760343.16405914-.3168556.24665184-.8818648.24665184-1.6957783v-1.0493028h3.39193212v.5124502c0 .7320717-.00825927 1.3139748-.02440239 1.7449586-.01651854.4309837-.04092093.7771222-.07320717 1.0369138-.03266166.2605424-.0773368.4760343-.13402543.646851-.05743947.1708167-.126517.353647-.20760802.5488661-.2282562.5695142-.70391508 1.033535-1.42735206 1.3909362-.72418783.3577765-1.6315813.5372279-2.72105412.5372279-2.9613238 0-4.44123486-1.3826769-4.44123486-4.1487816z" mask="url(#a)" transform="translate(0 .315467)"/><path d="m15.6176418 5.06079275c0-.52070945-.0822173-.89087492-.2466519-1.11049643-.1648099-.2196215-.4441234-.32924454-.8390667-.32924454-.7568495 0-1.1348988.45538612-1.1348988 1.3665338v8.15039802c0 .7485902.0780876 1.2565353.2342629 1.5249616.1565507.2688017.4565124.4028272.9006359.4028272.7238124 0 1.0857186-.4715293 1.0857186-1.4153386zm-5.5637448-.51245018c0-1.41533858.382179-2.46464132 1.1469123-3.14790822.7643579-.6832669 1.9439319-1.02490035 3.5383465-1.02490035.878486 0 1.6387143.13853049 2.2814357.41484062.6427213.27668555 1.1183802.67500763 1.4277274 1.19571707.1137527.19521912.2072326.3986975.2808152.61005974.0728318.21173765.1340255.45989118.1828302.74408516.0488048.28494482.0810911.61418937.0976096.98848448.0161431.37429511.0244024.82968123.0244024 1.3665338v7.29631443c0 .5698896-.0041297 1.0331596-.0123889 1.3909362-.0082593.3577765-.0326617.6588645-.0728318.9028884-.0409209.2440239-.0979849.4598911-.1711921.6464756-.0728318.1873352-.1749464.4028271-.3048422.646851-.2928286.5368526-.7932653.9516932-1.5009346 1.2445219-.7072939.2928286-1.5981688.439243-2.6718739.439243-2.7657293 0-4.1728086-1.3177291-4.2216134-3.9531871z"/><path d="m20.1563736 10.7097582h5.4905376v-2.78187242h-5.4905376z" mask="url(#b)"/><path d="m32.3327153 5.06079275c0-.52070945-.0822173-.89087492-.2466518-1.11049643-.16481-.2196215-.4441235-.32924454-.8390668-.32924454-.7568495 0-1.1348988.45538612-1.1348988 1.3665338v8.15039802c0 .7485902.0780876 1.2565353.2342629 1.5249616.1565507.2688017.4565124.4028272.9006359.4028272.7238124 0 1.0857186-.4715293 1.0857186-1.4153386zm-5.5637447-.51245018c0-1.41533858.3821789-2.46464132 1.1469123-3.14790822.7643579-.6832669 1.9439318-1.02490035 3.5383464-1.02490035.878486 0 1.6387143.13853049 2.2814357.41484062.6427214.27668555 1.1183803.67500763 1.4277275 1.19571707.1137527.19521912.2072326.3986975.2808152.61005974.0728317.21173765.1340254.45989118.1828302.74408516.0488048.28494482.081091.61418937.0976095.98848448.0161432.37429511.0244024.82968123.0244024 1.3665338v7.29631443c0 .5698896-.0041296 1.0331596-.0123889 1.3909362-.0082593.3577765-.0326616.6588645-.0728317.9028884-.040921.2440239-.097985.4598911-.1711922.6464756-.0728317.1873352-.1749463.4028271-.3048421.646851-.2928287.5368526-.7932654.9516932-1.5009347 1.2445219-.7072939.2928286-1.5981688.439243-2.6718739.439243-2.7657293 0-4.1728086-1.3177291-4.2216133-3.9531871z" mask="url(#b)"/><path d="m41.7761772 6.81765215c.6832669 0 1.0249003-.2950812 1.0249003-.88561902v-1.20622888c0-.2950812-.0732071-.50794511-.2196215-.6393426-.1464143-.13102205-.3904382-.19709622-.7320716-.19709622h-1.2689243v2.92828672zm-4.5388444-6.12499971h4.9292826c.878486 0 1.5737664.06532331 2.086592.19521911.5120748.13027122.902513.3213607 1.1713147.57326844.2684263.25265858.4429972.56163037.5244637.92766621.0814664.36603584.1220119.7850061.1220119 1.25653534v3.4163345c0 .53685257-.0694529.99261412-.2072326 1.3665338-.1385305.37467054-.3622816.67951269-.6712534.91527731-.3093472.23576463-.7159286.40695677-1.2201195.51245018-.5045663.10586883-1.1225099.15880327-1.8545816.15880327h-1.5373505v7.9548035h-3.3431273z" mask="url(#b)"/><path d="m51.7321643 14.5775744h.2196215c.4227245 0 .7035397-.0769614.8420702-.231635.1377796-.1542982.2072326-.4673996.2072326-.9393043v-12.71402021h3.3431273v13.64131101c0 .3742951-.0041296.6873966-.0123889.9393043-.0082593.2522832-.024027.4719047-.0484294.6584891-.0244024.1873353-.0611937.3543978-.1099984.5004367-.0488048.1464143-.1141281.3014634-.1952191.4640208-.179076.3742951-.4760344.6626187-.8904995.8657217-.4148407.2038538-.9314205.3052176-1.5497395.3052176-.2928287 0-.6220732-.0161431-.988109-.0488048-.3660359-.0326617-.6385918-.0645725-.8176678-.0976096z" mask="url(#b)"/><path d="m63.3718788 5.06079275c0-.52070945-.0825927-.89087492-.2466519-1.11049643-.16481-.2196215-.4444989-.32924454-.8390668-.32924454-.7568494 0-1.1348988.45538612-1.1348988 1.3665338v8.15039802c0 .7485902.0780877 1.2565353.234263 1.5249616.1565507.2688017.4565124.4028272.9006358.4028272.7238125 0 1.0857187-.4715293 1.0857187-1.4153386zm-5.5637448-.51245018c0-1.41533858.382179-2.46464132 1.1465369-3.14790822.7647333-.6832669 1.9439318-1.02490035 3.5387218-1.02490035.8784861 0 1.6383389.13853049 2.2814357.41484062.642346.27668555 1.1183803.67500763 1.4277275 1.19571707.1137527.19521912.2072326.3986975.2804398.61005974.0732072.21173765.1344008.45989118.1828302.74408516.0488048.28494482.0814664.61418937.097985.98848448.0157677.37429511.0244024.82968123.0244024 1.3665338v7.29631443c0 .5698896-.0041297 1.0331596-.0123889 1.3909362-.0082593.3577765-.0330371.6588645-.0732072.9028884-.0405455.2440239-.0976096.4598911-.1708167.6464756-.0728318.1873352-.1749464.4028271-.3052176.646851-.2928287.5368526-.79289.9516932-1.5005592 1.2445219-.7072939.2928286-1.5981688.439243-2.6722494.439243-2.7657292 0-4.1724331-1.3177291-4.2212379-3.9531871z" mask="url(#b)"/><path d="m68.2278041.69268998h3.3915567v12.56422712.3176065c0 .5544973.0893502.9535703.2688017 1.1979696.1787005.2443993.4715292.3664112.878486.3664112.6828915 0 1.0245249-.4887986 1.0245249-1.4663958v-12.97981862h3.3435028v12.95766872c0 .4069568-.0127644.7564741-.0371668 1.0493027-.0240269.2928287-.0611936.5575008-.1099984.79289-.0491802.23614-.1182578.4516319-.2079835.646851-.0901011.1955945-.1997241.3990729-.3303708.6100597-.3262411.5045664-.8278041.8950046-1.5046888 1.1713147-.6772602.2763102-1.4806619.4152161-2.4102053.4152161-.8157906 0-1.5418555-.1344009-2.1778193-.4032026-.6363393-.2680509-1.1176295-.6382163-1.4438707-1.110121-.2609178-.3739197-.4407446-.7928899-.5379788-1.2565353-.097985-.4640208-.1467897-1.0939779-.1467897-1.8909975z" mask="url(#b)"/><path d="m83.3568349 6.93973918c.4065814 0 .6915262-.10211461.8540836-.3074701.1625575-.20498007.2440239-.54511184.2440239-1.02114614v-.36866379c0-.52483908-.0608182-.87360554-.1828302-1.04592395-.1223873-.17231841-.3705409-.2582899-.7444606-.2582899h-1.2445218v3.00149388zm-4.4656372-6.24701166h4.7828683c.439243 0 .809033.00825927 1.1104964.02440239.3007125.01651854.5650092.04092093.79289.07320717.2275053.03266166.4227244.0773368.5856573.13440085.1625574.05706405.3254903.12576616.4880478.2072326.3739197.22788077.6506052.54886605.8296812.96370666.1787006.41484062.2684263.98848448.2684263 1.72055616v2.83067716c0 .92729079-.1670625 1.62257118-.5004367 2.08621657-.3333742.4636454-.9149019.78538152-1.7445831.96408209l3.2699201 8.27240993h-3.513944l-2.9770915-7.8331669v7.8331669h-3.3919321z" mask="url(#b)"/><path d="m89.4816469.69268998h3.0502987l3.0502987 9.1264936v-9.1264936h3.0502986v17.27689162h-2.929413l-3.1952113-9.1264936v9.1264936h-3.0262717z" mask="url(#b)"/><path d="m105.318234 12.8453051-.902513-9.15089599-1.000497 9.15089599zm-3.513568-12.15276529h5.294943l1.976969 17.27689159h-3.245893l-.194844-1.9274133h-2.489419l-.219622 1.9274133h-3.2455175z" mask="url(#b)"/><path d="m110.394157.69268998h3.391932v14.03137382h2.537848v3.2455178h-5.92978z" mask="url(#b)"/></g></svg>