<svg height="16" viewBox="0 0 16 16" width="16" xmlns="http://www.w3.org/2000/svg"><path d="m881.869574 44.5940899c-3.161036 0-5.724517-2.5634806-5.724517-5.7245163 0-3.1618058 2.563481-5.7245163 5.724517-5.7245163 3.161805 0 5.724516 2.5627105 5.724516 5.7245163 0 3.1610357-2.562711 5.7245163-5.724516 5.7245163m8.795456 1.4515353-3.200308-3.200308c.800077-1.122726 1.274425-2.4926365 1.274425-3.9757436 0-3.7940129-3.075561-6.8695736-6.869573-6.8695736-3.794013 0-6.869574 3.0755607-6.869574 6.8695736 0 3.7932428 3.075561 6.8695736 6.869574 6.8695736 1.483107 0 2.853017-.4743479 3.975743-1.2744249l3.200308 3.200308c.446626.4466263 1.172009.4466263 1.619405 0 .446627-.4473963.446627-1.1727789 0-1.6194051" fill="#fff" fill-rule="evenodd" transform="translate(-875 -32)"/></svg>